<svg id="App_Icon_Kit_B" data-name="App Icon Kit B" xmlns="http://www.w3.org/2000/svg" xmlns:xlink="http://www.w3.org/1999/xlink" viewBox="0 0 71.68 60.85"><defs><style>.cls-1{fill:#fff;}</style><symbol id="Icon" data-name="Icon" viewBox="0 0 669.1 568.05"><path class="cls-1" d="M504.34,326.06a29.12,29.12,0,0,1,25.46,43.19L424.07,553a29.13,29.13,0,1,1-51-28.17L478.8,341.07A29.13,29.13,0,0,1,504.34,326.06Z"/><path class="cls-1" d="M152.37,329.74a28.78,28.78,0,0,1,14-3.66,29.13,29.13,0,0,1,25.54,15L297.7,524.82a29.13,29.13,0,0,1-51,28.17L140.95,369.28A29.13,29.13,0,0,1,152.37,329.74Z"/><path class="cls-1" d="M636.63,371.78H563.07a62.07,62.07,0,0,0-115-43.43c.23-.49-25,43.43-25,43.43H245.86L220.8,328.21a62,62,0,0,0-114.94,43.6H32.5a32.5,32.5,0,0,1,0-65H42.95a30.72,30.72,0,0,1,.76-4.48L108,60.8c5.42-20.36,27.09-37,48.14-37h11.2V11.92C167.3,5.34,174.15,0,182.59,0h86c8.45,0,15.29,5.31,15.29,11.89V23.77H394.7V11.89C394.7,5.31,401.55,0,410,0h86c8.45,0,15.29,5.31,15.29,11.89V23.77h1.78c21,0,42.74,16.66,48.18,37L625.49,302.3a32.11,32.11,0,0,1,.72,4.48H636.6a32.5,32.5,0,0,1,0,65ZM198.39,90a18.46,18.46,0,1,0-36.91,0h0V230.22a18.46,18.46,0,1,0,36.91,0ZM301.5,90a18.46,18.46,0,1,0-36.91,0h0V230.22a18.46,18.46,0,1,0,36.91,0Zm103.11,0a18.47,18.47,0,0,0-36.94,0V230.22a18.47,18.47,0,0,0,36.94,0Zm103.11,0a18.47,18.47,0,0,0-36.92,0V230.22a18.47,18.47,0,0,0,36.94,0Z"/></symbol></defs><title>app_logo</title><g id="App_Icon_and_Badge" data-name="App Icon and Badge"><g id="App_Icon" data-name="App Icon"><g id="_76x76" data-name=" 76x76"><use width="669.1" height="568.05" transform="matrix(0.11, 0, 0, -0.11, 0, 60.85)" xlink:href="#Icon"/></g></g></g></svg>